<svg xmlns="http://www.w3.org/2000/svg" xmlns:xlink="http://www.w3.org/1999/xlink" width="500" zoomAndPan="magnify" viewBox="0 0 375 374.999991" height="500" preserveAspectRatio="xMidYMid meet" version="1.0"><defs><clipPath id="17fa920e3b"><path d="M 6.554688 165 L 82 165 L 82 211 L 6.554688 211 Z M 6.554688 165 " clip-rule="nonzero"/></clipPath><clipPath id="70e190d4ec"><path d="M 43.988281 165.25 C 34.003906 165.25 27.78125 170.28125 25.304688 180.25 C 29.050781 175.234375 33.441406 173.386719 38.394531 174.65625 C 41.222656 175.363281 43.28125 177.421875 45.535156 179.753906 C 49.214844 183.5 53.460938 187.824219 62.738281 187.824219 C 72.707031 187.824219 78.933594 182.792969 81.40625 172.824219 C 77.660156 177.839844 73.273438 179.6875 68.320312 178.417969 C 65.488281 177.710938 63.445312 175.652344 61.179688 173.320312 C 57.496094 169.574219 53.25 165.25 43.988281 165.25 Z M 25.238281 187.679688 C 15.253906 187.679688 9.03125 192.699219 6.554688 202.679688 C 10.300781 197.652344 14.691406 195.816406 19.644531 197.085938 C 22.476562 197.796875 24.53125 199.851562 26.785156 202.183594 C 30.464844 205.929688 34.710938 210.257812 43.988281 210.257812 C 53.960938 210.257812 60.183594 205.222656 62.660156 195.253906 C 58.910156 200.269531 54.523438 202.121094 49.570312 200.835938 C 46.738281 200.128906 44.695312 198.082031 42.429688 195.75 C 38.8125 191.992188 34.566406 187.679688 25.238281 187.679688 Z M 25.238281 187.679688 " clip-rule="nonzero"/></clipPath><linearGradient x1="2.137689" gradientTransform="matrix(76.886343, 15.959094, -26.598489, 46.131831, 13442.314182, -23456.609457)" y1="511.59601" x2="3.308613" gradientUnits="userSpaceOnUse" y2="511.59601" id="82cff367b4"><stop stop-opacity="1" stop-color="rgb(13.299561%, 59.599304%, 74.099731%)" offset="0"/><stop stop-opacity="1" stop-color="rgb(13.294983%, 59.609985%, 74.098206%)" offset="0.0625"/><stop stop-opacity="1" stop-color="rgb(13.256836%, 59.733582%, 74.081421%)" offset="0.0703125"/><stop stop-opacity="1" stop-color="rgb(13.18512%, 59.959412%, 74.053955%)" offset="0.078125"/><stop stop-opacity="1" stop-color="rgb(13.113403%, 60.185242%, 74.024963%)" offset="0.0859375"/><stop stop-opacity="1" stop-color="rgb(13.041687%, 60.411072%, 73.997498%)" offset="0.09375"/><stop stop-opacity="1" stop-color="rgb(12.971497%, 60.636902%, 73.968506%)" offset="0.101563"/><stop stop-opacity="1" stop-color="rgb(12.89978%, 60.862732%, 73.94104%)" offset="0.109375"/><stop stop-opacity="1" stop-color="rgb(12.828064%, 61.088562%, 73.912048%)" offset="0.117188"/><stop stop-opacity="1" stop-color="rgb(12.757874%, 61.314392%, 73.883057%)" offset="0.125"/><stop stop-opacity="1" stop-color="rgb(12.686157%, 61.538696%, 73.855591%)" offset="0.132813"/><stop stop-opacity="1" stop-color="rgb(12.614441%, 61.764526%, 73.826599%)" offset="0.140625"/><stop stop-opacity="1" stop-color="rgb(12.542725%, 61.990356%, 73.799133%)" offset="0.148438"/><stop stop-opacity="1" stop-color="rgb(12.472534%, 62.216187%, 73.770142%)" offset="0.15625"/><stop stop-opacity="1" stop-color="rgb(12.400818%, 62.442017%, 73.742676%)" offset="0.164063"/><stop stop-opacity="1" stop-color="rgb(12.329102%, 62.667847%, 73.713684%)" offset="0.171875"/><stop stop-opacity="1" stop-color="rgb(12.258911%, 62.893677%, 73.684692%)" offset="0.179688"/><stop stop-opacity="1" stop-color="rgb(12.187195%, 63.119507%, 73.657227%)" offset="0.1875"/><stop stop-opacity="1" stop-color="rgb(12.115479%, 63.345337%, 73.628235%)" offset="0.195313"/><stop stop-opacity="1" stop-color="rgb(12.043762%, 63.571167%, 73.600769%)" offset="0.203125"/><stop stop-opacity="1" stop-color="rgb(11.973572%, 63.796997%, 73.571777%)" offset="0.210938"/><stop stop-opacity="1" stop-color="rgb(11.901855%, 64.022827%, 73.544312%)" offset="0.21875"/><stop stop-opacity="1" stop-color="rgb(11.830139%, 64.248657%, 73.51532%)" offset="0.226563"/><stop stop-opacity="1" stop-color="rgb(11.759949%, 64.474487%, 73.486328%)" offset="0.234375"/><stop stop-opacity="1" stop-color="rgb(11.688232%, 64.698792%, 73.458862%)" offset="0.242188"/><stop stop-opacity="1" stop-color="rgb(11.616516%, 64.924622%, 73.429871%)" offset="0.25"/><stop stop-opacity="1" stop-color="rgb(11.5448%, 65.150452%, 73.402405%)" offset="0.257813"/><stop stop-opacity="1" stop-color="rgb(11.474609%, 65.376282%, 73.373413%)" offset="0.265625"/><stop stop-opacity="1" stop-color="rgb(11.402893%, 65.602112%, 73.345947%)" offset="0.273438"/><stop stop-opacity="1" stop-color="rgb(11.331177%, 65.827942%, 73.316956%)" offset="0.28125"/><stop stop-opacity="1" stop-color="rgb(11.260986%, 66.053772%, 73.287964%)" offset="0.289063"/><stop stop-opacity="1" stop-color="rgb(11.18927%, 66.279602%, 73.260498%)" offset="0.296875"/><stop stop-opacity="1" stop-color="rgb(11.117554%, 66.505432%, 73.231506%)" offset="0.304688"/><stop stop-opacity="1" stop-color="rgb(11.045837%, 66.731262%, 73.204041%)" offset="0.3125"/><stop stop-opacity="1" stop-color="rgb(10.975647%, 66.957092%, 73.175049%)" offset="0.320313"/><stop stop-opacity="1" stop-color="rgb(10.903931%, 67.182922%, 73.147583%)" offset="0.328125"/><stop stop-opacity="1" stop-color="rgb(10.832214%, 67.408752%, 73.118591%)" offset="0.335938"/><stop stop-opacity="1" stop-color="rgb(10.762024%, 67.634583%, 73.091125%)" offset="0.34375"/><stop stop-opacity="1" stop-color="rgb(10.690308%, 67.860413%, 73.062134%)" offset="0.351563"/><stop stop-opacity="1" stop-color="rgb(10.618591%, 68.084717%, 73.033142%)" offset="0.359375"/><stop stop-opacity="1" stop-color="rgb(10.546875%, 68.310547%, 73.005676%)" offset="0.367188"/><stop stop-opacity="1" stop-color="rgb(10.476685%, 68.536377%, 72.976685%)" offset="0.375"/><stop stop-opacity="1" stop-color="rgb(10.404968%, 68.762207%, 72.949219%)" offset="0.382813"/><stop stop-opacity="1" stop-color="rgb(10.333252%, 68.988037%, 72.920227%)" offset="0.390625"/><stop stop-opacity="1" stop-color="rgb(10.263062%, 69.213867%, 72.892761%)" offset="0.398438"/><stop stop-opacity="1" stop-color="rgb(10.191345%, 69.439697%, 72.86377%)" offset="0.40625"/><stop stop-opacity="1" stop-color="rgb(10.119629%, 69.665527%, 72.834778%)" offset="0.414063"/><stop stop-opacity="1" stop-color="rgb(10.047913%, 69.891357%, 72.807312%)" offset="0.421875"/><stop stop-opacity="1" stop-color="rgb(9.977722%, 70.117188%, 72.77832%)" offset="0.429688"/><stop stop-opacity="1" stop-color="rgb(9.906006%, 70.343018%, 72.750854%)" offset="0.4375"/><stop stop-opacity="1" stop-color="rgb(9.83429%, 70.568848%, 72.721863%)" offset="0.445313"/><stop stop-opacity="1" stop-color="rgb(9.764099%, 70.794678%, 72.694397%)" offset="0.453125"/><stop stop-opacity="1" stop-color="rgb(9.692383%, 71.020508%, 72.665405%)" offset="0.460938"/><stop stop-opacity="1" stop-color="rgb(9.620667%, 71.246338%, 72.636414%)" offset="0.46875"/><stop stop-opacity="1" stop-color="rgb(9.54895%, 71.470642%, 72.608948%)" offset="0.476563"/><stop stop-opacity="1" stop-color="rgb(9.47876%, 71.696472%, 72.579956%)" offset="0.484375"/><stop stop-opacity="1" stop-color="rgb(9.407043%, 71.922302%, 72.55249%)" offset="0.492188"/><stop stop-opacity="1" stop-color="rgb(9.335327%, 72.148132%, 72.523499%)" offset="0.5"/><stop stop-opacity="1" stop-color="rgb(9.265137%, 72.373962%, 72.496033%)" offset="0.507813"/><stop stop-opacity="1" stop-color="rgb(9.19342%, 72.599792%, 72.467041%)" offset="0.515625"/><stop stop-opacity="1" stop-color="rgb(9.121704%, 72.825623%, 72.438049%)" offset="0.523438"/><stop stop-opacity="1" stop-color="rgb(9.049988%, 73.051453%, 72.410583%)" offset="0.53125"/><stop stop-opacity="1" stop-color="rgb(8.979797%, 73.277283%, 72.381592%)" offset="0.539063"/><stop stop-opacity="1" stop-color="rgb(8.908081%, 73.503113%, 72.354126%)" offset="0.546875"/><stop stop-opacity="1" stop-color="rgb(8.836365%, 73.728943%, 72.325134%)" offset="0.554688"/><stop stop-opacity="1" stop-color="rgb(8.766174%, 73.954773%, 72.297668%)" offset="0.5625"/><stop stop-opacity="1" stop-color="rgb(8.694458%, 74.180603%, 72.268677%)" offset="0.570312"/><stop stop-opacity="1" stop-color="rgb(8.622742%, 74.406433%, 72.241211%)" offset="0.578125"/><stop stop-opacity="1" stop-color="rgb(8.551025%, 74.630737%, 72.212219%)" offset="0.585938"/><stop stop-opacity="1" stop-color="rgb(8.480835%, 74.856567%, 72.183228%)" offset="0.59375"/><stop stop-opacity="1" stop-color="rgb(8.409119%, 75.082397%, 72.155762%)" offset="0.601563"/><stop stop-opacity="1" stop-color="rgb(8.337402%, 75.308228%, 72.12677%)" offset="0.609375"/><stop stop-opacity="1" stop-color="rgb(8.267212%, 75.534058%, 72.099304%)" offset="0.617188"/><stop stop-opacity="1" stop-color="rgb(8.195496%, 75.759888%, 72.070312%)" offset="0.625"/><stop stop-opacity="1" stop-color="rgb(8.123779%, 75.985718%, 72.042847%)" offset="0.632813"/><stop stop-opacity="1" stop-color="rgb(8.052063%, 76.211548%, 72.013855%)" offset="0.640625"/><stop stop-opacity="1" stop-color="rgb(7.981873%, 76.437378%, 71.984863%)" offset="0.648438"/><stop stop-opacity="1" stop-color="rgb(7.910156%, 76.663208%, 71.957397%)" offset="0.65625"/><stop stop-opacity="1" stop-color="rgb(7.83844%, 76.889038%, 71.928406%)" offset="0.664063"/><stop stop-opacity="1" stop-color="rgb(7.76825%, 77.114868%, 71.90094%)" offset="0.671875"/><stop stop-opacity="1" stop-color="rgb(7.696533%, 77.340698%, 71.871948%)" offset="0.679688"/><stop stop-opacity="1" stop-color="rgb(7.624817%, 77.566528%, 71.844482%)" offset="0.6875"/><stop stop-opacity="1" stop-color="rgb(7.553101%, 77.792358%, 71.815491%)" offset="0.695312"/><stop stop-opacity="1" stop-color="rgb(7.48291%, 78.016663%, 71.786499%)" offset="0.703125"/><stop stop-opacity="1" stop-color="rgb(7.411194%, 78.242493%, 71.759033%)" offset="0.710938"/><stop stop-opacity="1" stop-color="rgb(7.339478%, 78.468323%, 71.730042%)" offset="0.71875"/><stop stop-opacity="1" stop-color="rgb(7.269287%, 78.694153%, 71.702576%)" offset="0.726563"/><stop stop-opacity="1" stop-color="rgb(7.197571%, 78.919983%, 71.673584%)" offset="0.734375"/><stop stop-opacity="1" stop-color="rgb(7.125854%, 79.145813%, 71.646118%)" offset="0.742188"/><stop stop-opacity="1" stop-color="rgb(7.054138%, 79.371643%, 71.617126%)" offset="0.75"/><stop stop-opacity="1" stop-color="rgb(6.983948%, 79.597473%, 71.589661%)" offset="0.757813"/><stop stop-opacity="1" stop-color="rgb(6.912231%, 79.823303%, 71.560669%)" offset="0.765625"/><stop stop-opacity="1" stop-color="rgb(6.840515%, 80.049133%, 71.531677%)" offset="0.773438"/><stop stop-opacity="1" stop-color="rgb(6.770325%, 80.274963%, 71.504211%)" offset="0.78125"/><stop stop-opacity="1" stop-color="rgb(6.698608%, 80.500793%, 71.47522%)" offset="0.789063"/><stop stop-opacity="1" stop-color="rgb(6.626892%, 80.726624%, 71.447754%)" offset="0.796875"/><stop stop-opacity="1" stop-color="rgb(6.555176%, 80.952454%, 71.418762%)" offset="0.804688"/><stop stop-opacity="1" stop-color="rgb(6.484985%, 81.178284%, 71.391296%)" offset="0.8125"/><stop stop-opacity="1" stop-color="rgb(6.413269%, 81.402588%, 71.362305%)" offset="0.820312"/><stop stop-opacity="1" stop-color="rgb(6.341553%, 81.628418%, 71.333313%)" offset="0.828125"/><stop stop-opacity="1" stop-color="rgb(6.271362%, 81.854248%, 71.305847%)" offset="0.835938"/><stop stop-opacity="1" stop-color="rgb(6.199646%, 82.080078%, 71.276855%)" offset="0.84375"/><stop stop-opacity="1" stop-color="rgb(6.12793%, 82.305908%, 71.24939%)" offset="0.851563"/><stop stop-opacity="1" stop-color="rgb(6.056213%, 82.531738%, 71.220398%)" offset="0.859375"/><stop stop-opacity="1" stop-color="rgb(5.986023%, 82.757568%, 71.192932%)" offset="0.867188"/><stop stop-opacity="1" stop-color="rgb(5.914307%, 82.983398%, 71.16394%)" offset="0.875"/><stop stop-opacity="1" stop-color="rgb(5.84259%, 83.209229%, 71.134949%)" offset="0.882813"/><stop stop-opacity="1" stop-color="rgb(5.7724%, 83.435059%, 71.107483%)" offset="0.890625"/><stop stop-opacity="1" stop-color="rgb(5.700684%, 83.660889%, 71.078491%)" offset="0.898438"/><stop stop-opacity="1" stop-color="rgb(5.628967%, 83.886719%, 71.051025%)" offset="0.90625"/><stop stop-opacity="1" stop-color="rgb(5.54657%, 84.14917%, 71.017456%)" offset="0.9375"/><stop stop-opacity="1" stop-color="rgb(5.499268%, 84.298706%, 70.999146%)" offset="1"/></linearGradient><clipPath id="a34976c133"><path d="M 101 166 L 368.804688 166 L 368.804688 206 L 101 206 Z M 101 166 " clip-rule="nonzero"/></clipPath></defs><g clip-path="url(#17fa920e3b)"><g clip-path="url(#70e190d4ec)"><path fill="url(#82cff367b4)" d="M 14.554688 151.371094 L -16.621094 205.445312 L 73.40625 224.132812 L 104.585938 170.058594 Z M 14.554688 151.371094 " fill-rule="nonzero"/></g></g><g clip-path="url(#a34976c133)"><path fill="#2d3748" d="M 118.839844 184.144531 L 112.328125 184.144531 L 112.328125 196.8125 C 112.328125 200.207031 114.515625 200.128906 118.839844 199.917969 L 118.839844 205.015625 C 110.066406 206.074219 106.605469 203.664062 106.605469 196.8125 L 106.605469 184.144531 L 101.78125 184.144531 L 101.78125 178.691406 L 106.605469 178.691406 L 106.605469 171.617188 L 112.265625 169.925781 L 112.265625 178.691406 L 118.761719 178.691406 L 118.761719 184.144531 Z M 143.746094 178.691406 L 149.40625 178.691406 L 149.40625 205.015625 L 143.746094 205.015625 L 143.746094 201.1875 C 141.757812 203.953125 138.652344 205.65625 134.546875 205.65625 C 127.398438 205.65625 121.460938 199.5625 121.460938 191.78125 C 121.460938 183.933594 127.398438 177.917969 134.550781 177.917969 C 138.652344 177.917969 141.757812 179.609375 143.75 182.375 Z M 135.390625 200.269531 C 140.132812 200.269531 143.75 196.734375 143.75 191.859375 C 143.75 186.972656 140.132812 183.433594 135.390625 183.433594 C 130.660156 183.433594 127.042969 186.972656 127.042969 191.859375 C 127.121094 196.734375 130.660156 200.269531 135.390625 200.269531 Z M 158.882812 174.734375 C 156.902344 174.734375 155.277344 173.03125 155.277344 171.117188 C 155.277344 169.140625 156.902344 167.515625 158.882812 167.515625 C 160.863281 167.515625 162.5 169.140625 162.5 171.117188 C 162.5625 173.03125 160.859375 174.734375 158.882812 174.734375 Z M 156.050781 205.015625 L 156.050781 178.695312 L 161.710938 178.695312 L 161.710938 205.015625 Z M 168.289062 205.015625 L 168.289062 166.597656 L 173.949219 166.597656 L 173.949219 205.015625 Z M 210.964844 178.695312 L 216.976562 178.695312 L 208.695312 205.015625 L 203.101562 205.015625 L 197.652344 187.261719 L 192.136719 205.015625 L 186.554688 205.015625 L 178.273438 178.695312 L 184.285156 178.695312 L 189.378906 196.878906 L 194.898438 178.691406 L 200.347656 178.691406 L 205.785156 196.878906 Z M 223.972656 174.734375 C 221.996094 174.734375 220.371094 173.035156 220.371094 171.117188 C 220.371094 169.140625 221.996094 167.515625 223.972656 167.515625 C 225.953125 167.515625 227.589844 169.140625 227.589844 171.117188 C 227.65625 173.03125 226.03125 174.734375 223.972656 174.734375 Z M 221.144531 205.015625 L 221.144531 178.695312 L 226.804688 178.695312 L 226.804688 205.015625 Z M 247.257812 177.988281 C 253.125 177.988281 257.371094 182.019531 257.371094 188.808594 L 257.371094 205.015625 L 251.710938 205.015625 L 251.710938 189.449219 C 251.710938 185.414062 249.378906 183.371094 245.839844 183.371094 C 242.09375 183.371094 239.121094 185.558594 239.121094 190.929688 L 239.121094 205.078125 L 233.460938 205.078125 L 233.460938 178.769531 L 239.121094 178.769531 L 239.121094 182.164062 C 240.890625 179.335938 243.71875 177.984375 247.257812 177.984375 Z M 284.402344 168.160156 L 290.0625 168.160156 L 290.0625 205.015625 L 284.402344 205.015625 L 284.402344 201.1875 C 282.421875 203.953125 279.304688 205.65625 275.203125 205.65625 C 268.050781 205.65625 262.113281 199.5625 262.113281 191.78125 C 262.113281 183.933594 268.050781 177.917969 275.203125 177.917969 C 279.304688 177.917969 282.421875 179.609375 284.402344 182.375 Z M 276.050781 200.269531 C 280.785156 200.269531 284.402344 196.734375 284.402344 191.859375 C 284.402344 186.972656 280.785156 183.433594 276.050781 183.433594 C 271.3125 183.433594 267.695312 186.972656 267.695312 191.859375 C 267.695312 196.734375 271.3125 200.269531 276.054688 200.269531 Z M 309.085938 205.722656 C 301.171875 205.722656 295.160156 199.644531 295.160156 191.859375 C 295.160156 184 301.09375 177.984375 309.085938 177.984375 C 314.261719 177.984375 318.714844 180.671875 320.839844 184.785156 L 315.949219 187.617188 C 314.824219 185.140625 312.203125 183.578125 309.019531 183.578125 C 304.355469 183.578125 300.882812 187.117188 300.882812 191.859375 C 300.882812 196.589844 304.421875 200.128906 309.019531 200.128906 C 312.203125 200.128906 314.746094 198.503906 316.03125 196.105469 L 320.902344 198.855469 C 318.78125 203.035156 314.261719 205.722656 309.085938 205.722656 Z M 330.390625 185.910156 C 330.390625 190.722656 344.539062 187.824219 344.539062 197.585938 C 344.539062 202.828125 339.941406 205.722656 334.28125 205.722656 C 329.039062 205.722656 325.226562 203.3125 323.523438 199.5625 L 328.410156 196.734375 C 329.25 199.144531 331.371094 200.558594 334.28125 200.558594 C 336.824219 200.558594 338.734375 199.707031 338.734375 197.585938 C 338.734375 192.921875 324.585938 195.527344 324.585938 186.125 C 324.585938 181.171875 328.832031 178.0625 334.203125 178.0625 C 338.527344 178.0625 342.128906 180.042969 343.976562 183.5 L 339.15625 186.199219 C 338.238281 184.144531 336.402344 183.226562 334.203125 183.226562 C 332.160156 183.148438 330.390625 184.074219 330.390625 185.910156 Z M 354.65625 185.910156 C 354.65625 190.722656 368.804688 187.824219 368.804688 197.585938 C 368.804688 202.828125 364.207031 205.722656 358.546875 205.722656 C 353.304688 205.722656 349.488281 203.3125 347.792969 199.5625 L 352.675781 196.734375 C 353.527344 199.144531 355.648438 200.558594 358.546875 200.558594 C 361.085938 200.558594 363 199.707031 363 197.585938 C 363 192.921875 348.851562 195.527344 348.851562 186.125 C 348.851562 181.171875 353.09375 178.0625 358.480469 178.0625 C 362.792969 178.0625 366.394531 180.042969 368.242188 183.5 L 363.429688 186.199219 C 362.503906 184.144531 360.667969 183.226562 358.476562 183.226562 C 356.421875 183.148438 354.65625 184.074219 354.65625 185.910156 Z M 354.65625 185.910156 " fill-opacity="1" fill-rule="nonzero"/></g></svg>